<svg width="52" height="52" viewBox="0 0 52 52" fill="none" xmlns="http://www.w3.org/2000/svg">
  <rect width="52" height="52" rx="26" fill="white" fill-opacity="0.9"/>
  <g clipPath="url(#clip0_5868_255074)">
    <path d="M31.3498 14.0338V20.6601C31.3498 23.5785 28.9476 25.9394 25.9779 25.9394C23.0082 25.9394 20.606 23.5785 20.606 20.6601V14.0338C20.606 13.3965 19.8544 13.0199 19.3385 13.4254C16.8331 15.3518 15.2267 18.3789 15.2267 21.7536C15.2267 26.3015 21.7408 36.7877 24.6294 41.2559C25.2779 42.2481 26.7222 42.2481 27.3706 41.2559C30.2666 36.7877 36.7734 26.3015 36.7734 21.7536C36.7734 18.3789 35.1743 15.3807 32.6615 13.4254C32.0941 13.0199 31.3498 13.4037 31.3498 14.0338V14.0338Z" fill="#1F83B9"/>
    <path d="M25.9779 22.4415C24.9978 22.4415 24.1946 21.6522 24.1946 20.689V11.7525C24.1946 10.7894 24.9978 10 25.9779 10C26.958 10 27.7612 10.7894 27.7612 11.7525V20.689C27.7538 21.6522 26.958 22.4415 25.9779 22.4415V22.4415Z" fill="#1F83B9"/>
  </g>
  <defs>
    <clipPath id="clip0_5868_255074">
      <rect width="21.5467" height="32" fill="white" transform="translate(15.2267 10)"/>
    </clipPath>
  </defs>
</svg>